<svg xmlns="http://www.w3.org/2000/svg" width="512" height="512" viewBox="0 0 512 512"><defs><linearGradient id="mainGradient" x1="0%" x2="100%" y1="0%" y2="100%"><stop offset="0%" style="stop-color:#60a5fa;stop-opacity:1"/><stop offset="100%" style="stop-color:#3b82f6;stop-opacity:1"/></linearGradient><linearGradient id="darkBlue" x1="0%" x2="100%" y1="0%" y2="100%"><stop offset="0%" style="stop-color:#2563eb;stop-opacity:1"/><stop offset="100%" style="stop-color:#1e40af;stop-opacity:1"/></linearGradient><radialGradient id="bgWhite"><stop offset="0%" style="stop-color:#fff;stop-opacity:1"/><stop offset="100%" style="stop-color:#f3f4f6;stop-opacity:1"/></radialGradient></defs><rect width="512" height="512" fill="url(#bgWhite)" rx="80"/><g transform="translate(256, 320) scale(1.2)"><g id="modern-fox"><path fill="url(#mainGradient)" d="M -140 -160 L -100 -220 L -60 -180 Q -80 -140, -100 -130 C -110 -125, -130 -135, -140 -160 Z"/><path fill="url(#mainGradient)" d="M 140 -160 L 100 -220 L 60 -180 Q 80 -140, 100 -130 C 110 -125, 130 -135, 140 -160 Z"/><ellipse cx="0" cy="-60" fill="url(#mainGradient)" rx="150" ry="130"/><path fill="url(#darkBlue)" d="M -100 0 Q -50 60, 0 80 Q 50 60, 100 0 L 100 -40 L -100 -40 Z"/><g id="eye-mask"><path fill="#1E293B" d="M -150 -60 Q -100 -80, -50 -70 Q 0 -60, 50 -70 Q 100 -80, 150 -60 L 150 -40 Q 100 -30, 50 -35 Q 0 -40, -50 -35 Q -100 -30, -150 -40 Z"/></g><g id="eyes"><circle cx="-50" cy="-60" r="15" fill="#FFF"/><circle cx="-50" cy="-60" r="8" fill="#1E293B"/><circle cx="-48" cy="-62" r="3" fill="#FFF"/><circle cx="50" cy="-60" r="15" fill="#FFF"/><circle cx="50" cy="-60" r="8" fill="#1E293B"/><circle cx="52" cy="-62" r="3" fill="#FFF"/></g><path fill="#1E293B" d="M -8 20 Q 0 12, 8 20 Q 0 28, -8 20 Z"/><path fill="none" stroke="#1E293B" stroke-linecap="round" stroke-width="3" d="M 0 28 Q -20 40, -30 50 M 0 28 Q 20 40, 30 50"/></g></g></svg>